<svg width="200" height="53" viewBox="0 0 200 53" fill="none" xmlns="http://www.w3.org/2000/svg">
<path d="M46.144 7.072L30.208 52H16.512L0.576 7.072H12.224L23.36 40.992L34.56 7.072H46.144ZM56.222 12.576C54.302 12.576 52.7233 12.0213 51.486 10.912C50.2913 9.76 49.694 8.352 49.694 6.688C49.694 4.98133 50.2913 3.57333 51.486 2.464C52.7233 1.312 54.302 0.735996 56.222 0.735996C58.0993 0.735996 59.6353 1.312 60.83 2.464C62.0673 3.57333 62.686 4.98133 62.686 6.688C62.686 8.352 62.0673 9.76 60.83 10.912C59.6353 12.0213 58.0993 12.576 56.222 12.576ZM61.662 16.288V52H50.718V16.288H61.662ZM80.537 22.24C81.817 20.2773 83.417 18.7413 85.337 17.632C87.257 16.48 89.3903 15.904 91.737 15.904V27.488H88.729C85.9983 27.488 83.9503 28.0853 82.585 29.28C81.2197 30.432 80.537 32.48 80.537 35.424V52H69.593V16.288H80.537V22.24ZM94.792 34.08C94.792 30.4107 95.4747 27.1893 96.84 24.416C98.248 21.6427 100.147 19.5093 102.536 18.016C104.925 16.5227 107.592 15.776 110.536 15.776C113.053 15.776 115.251 16.288 117.128 17.312C119.048 18.336 120.52 19.68 121.544 21.344V16.288H132.488V52H121.544V46.944C120.477 48.608 118.984 49.952 117.064 50.976C115.187 52 112.989 52.512 110.472 52.512C107.571 52.512 104.925 51.7653 102.536 50.272C100.147 48.736 98.248 46.5813 96.84 43.808C95.4747 40.992 94.792 37.7493 94.792 34.08ZM121.544 34.144C121.544 31.4133 120.776 29.2587 119.24 27.68C117.747 26.1013 115.912 25.312 113.736 25.312C111.56 25.312 109.704 26.1013 108.168 27.68C106.675 29.216 105.928 31.3493 105.928 34.08C105.928 36.8107 106.675 38.9867 108.168 40.608C109.704 42.1867 111.56 42.976 113.736 42.976C115.912 42.976 117.747 42.1867 119.24 40.608C120.776 39.0293 121.544 36.8747 121.544 34.144ZM151.35 4.64V52H140.406V4.64H151.35Z" fill="black"/>
<path d="M186.801 52L177.649 38.24L169.585 52H157.169L171.569 29.152L156.849 7.072H169.585L178.609 20.64L186.545 7.072H198.961L184.689 29.728L199.537 52H186.801Z" fill="#6EBEE4"/>
</svg>
