<svg width="200" height="53" viewBox="0 0 200 53" fill="none" xmlns="http://www.w3.org/2000/svg">
<g clip-path="url(#clip0_5_120)">
<path d="M46.144 7.07209L30.208 52.0001H16.512L0.575989 7.07209H12.224L23.36 40.9921L34.56 7.07209H46.144ZM56.222 12.5761C54.302 12.5761 52.7233 12.0214 51.486 10.9121C50.2913 9.76009 49.694 8.35209 49.694 6.68809C49.694 4.98142 50.2913 3.57342 51.486 2.46409C52.7233 1.31209 54.302 0.736084 56.222 0.736084C58.0993 0.736084 59.6353 1.31209 60.83 2.46409C62.0673 3.57342 62.686 4.98142 62.686 6.68809C62.686 8.35209 62.0673 9.76009 60.83 10.9121C59.6353 12.0214 58.0993 12.5761 56.222 12.5761ZM61.662 16.2881V52.0001H50.718V16.2881H61.662ZM80.537 22.2401C81.817 20.2774 83.417 18.7414 85.337 17.6321C87.257 16.4801 89.3903 15.9041 91.737 15.9041V27.4881H88.729C85.9983 27.4881 83.9503 28.0854 82.585 29.2801C81.2197 30.4321 80.537 32.4801 80.537 35.4241V52.0001H69.593V16.2881H80.537V22.2401ZM94.792 34.0801C94.792 30.4108 95.4747 27.1894 96.84 24.4161C98.248 21.6428 100.147 19.5094 102.536 18.0161C104.925 16.5228 107.592 15.7761 110.536 15.7761C113.053 15.7761 115.251 16.2881 117.128 17.3121C119.048 18.3361 120.52 19.6801 121.544 21.3441V16.2881H132.488V52.0001H121.544V46.9441C120.477 48.6081 118.984 49.9521 117.064 50.9761C115.187 52.0001 112.989 52.5121 110.472 52.5121C107.571 52.5121 104.925 51.7654 102.536 50.2721C100.147 48.7361 98.248 46.5814 96.84 43.8081C95.4747 40.9921 94.792 37.7494 94.792 34.0801ZM121.544 34.1441C121.544 31.4134 120.776 29.2588 119.24 27.6801C117.747 26.1014 115.912 25.3121 113.736 25.3121C111.56 25.3121 109.704 26.1014 108.168 27.6801C106.675 29.2161 105.928 31.3494 105.928 34.0801C105.928 36.8108 106.675 38.9868 108.168 40.6081C109.704 42.1868 111.56 42.9761 113.736 42.9761C115.912 42.9761 117.747 42.1868 119.24 40.6081C120.776 39.0294 121.544 36.8748 121.544 34.1441ZM151.35 4.64009V52.0001H140.406V4.64009H151.35Z" fill="white"/>
<path d="M186.801 52L177.649 38.24L169.585 52H157.169L171.569 29.152L156.849 7.07202H169.585L178.609 20.64L186.545 7.07202H198.961L184.689 29.728L199.537 52H186.801Z" fill="#6EBEE4"/>
</g>
<defs>
<clipPath id="clip0_5_120">
<rect width="200" height="53" fill="white"/>
</clipPath>
</defs>
</svg>
